<?xml version="1.0" standalone="no"?>
<!DOCTYPE svg PUBLIC "-//W3C//DTD SVG 20010904//EN"
 "http://www.w3.org/TR/2001/REC-SVG-20010904/DTD/svg10.dtd">
<svg version="1.0" xmlns="http://www.w3.org/2000/svg"
 width="2376.000000pt" height="2376.000000pt" viewBox="0 0 2376.000000 2376.000000"
 preserveAspectRatio="xMidYMid meet">
<metadata>
Created by potrace 1.11, written by Peter Selinger 2001-2013
</metadata>
<g transform="translate(0.000000,2376.000000) scale(0.100000,-0.100000)"
fill="#000000" stroke="none">
<path d="M4740 22764 c-6 -16 -113 -297 -236 -624 -124 -327 -242 -640 -263
-695 -22 -55 -113 -297 -205 -539 -91 -241 -167 -441 -170 -443 -2 -3 -46 -5
-98 -6 l-93 -2 0 -107 -1 -108 388 0 388 0 1 38 c1 44 1 164 0 173 -1 4 -73 6
-161 6 -88 0 -163 2 -165 5 -3 3 35 115 83 249 l89 244 463 0 462 0 91 -243
c49 -133 87 -245 84 -249 -4 -3 -71 -5 -149 -5 -79 0 -150 -1 -158 -4 -12 -3
-15 -24 -15 -109 l0 -105 392 0 393 0 0 109 0 109 -96 0 c-52 0 -97 2 -98 4
-1 1 -206 525 -456 1163 -249 638 -454 1162 -456 1164 -2 2 -8 -9 -14 -25z
m200 -1034 c83 -228 155 -424 160 -435 25 -60 40 -108 36 -113 -8 -7 -745 -6
-753 1 -5 6 41 143 142 422 18 50 74 207 125 350 51 143 95 266 98 274 3 8 13
-8 23 -35 9 -27 86 -236 169 -464z"/>
<path d="M3683 17894 c-2 -6 -2 -55 -1 -110 l3 -99 77 0 c42 0 79 -3 81 -5 3
-3 8 -27 11 -55 4 -27 8 -61 11 -75 6 -33 13 -76 20 -130 3 -25 8 -56 10 -70
2 -14 7 -45 10 -70 4 -25 8 -56 10 -70 7 -41 34 -232 39 -270 3 -19 11 -80 20
-135 8 -55 17 -118 20 -140 3 -23 12 -83 20 -135 8 -52 18 -113 21 -135 4 -22
8 -53 10 -70 2 -25 26 -187 40 -275 8 -50 26 -176 30 -208 2 -18 6 -45 9 -60
3 -15 8 -47 10 -72 3 -25 9 -74 15 -110 6 -36 11 -68 11 -71 0 -3 54 -6 119
-6 120 0 120 0 130 26 5 14 40 109 77 211 36 102 82 228 101 280 19 52 54 149
78 215 24 66 56 155 72 198 l29 79 139 -379 c76 -208 149 -409 162 -448 27
-78 33 -94 56 -146 l15 -36 116 -1 c65 0 117 3 117 9 1 5 2 12 3 17 1 4 6 33
10 66 8 62 13 95 21 136 3 14 7 48 10 75 3 28 12 91 20 140 15 96 43 288 51
345 3 19 7 47 10 62 3 15 7 42 9 60 1 18 8 67 14 108 6 41 13 89 16 105 19
135 54 377 60 414 4 21 23 155 41 281 2 19 9 62 14 95 12 83 18 122 26 180 3
28 10 55 15 61 5 6 40 10 84 9 l75 -2 1 36 c0 20 1 69 2 109 2 58 -1 72 -13
73 -70 4 -682 1 -686 -4 -5 -4 -8 -125 -5 -192 1 -19 7 -20 139 -20 75 1 142
0 148 -2 13 -5 11 -23 -21 -238 -13 -88 -27 -180 -30 -205 -3 -25 -7 -56 -10
-70 -2 -14 -7 -45 -10 -70 -3 -25 -10 -70 -15 -100 -5 -30 -12 -77 -15 -105
-4 -27 -8 -61 -10 -75 -19 -123 -25 -161 -30 -200 -3 -25 -8 -56 -10 -70 -2
-14 -7 -45 -10 -70 -6 -47 -9 -65 -20 -140 -4 -25 -9 -58 -11 -75 -2 -16 -6
-41 -9 -55 -2 -14 -7 -50 -11 -80 -3 -30 -9 -73 -13 -95 -7 -32 -9 -36 -15
-20 -4 11 -12 29 -16 40 -5 11 -23 61 -40 110 -17 50 -68 191 -112 315 -44
124 -102 286 -128 360 -47 133 -115 321 -126 350 -5 13 -6 13 -14 0 -7 -13
-103 -282 -332 -925 -28 -77 -60 -169 -73 -204 -25 -70 -28 -67 -40 29 -4 30
-9 64 -11 75 -2 10 -6 37 -9 60 -3 22 -8 51 -10 65 -2 14 -6 41 -9 60 -7 57
-27 193 -32 220 -2 14 -7 48 -10 75 -3 28 -8 61 -10 75 -2 14 -9 57 -15 97 -5
39 -12 82 -14 95 -3 13 -7 46 -10 73 -3 28 -8 57 -10 65 -2 8 -7 35 -10 60 -2
25 -7 61 -10 80 -3 19 -7 51 -9 70 -3 19 -9 64 -15 100 -5 36 -13 85 -16 110
-3 25 -10 68 -15 95 -4 28 -11 66 -13 85 l-5 35 152 0 151 0 0 108 0 107 -25
1 c-219 6 -673 2 -677 -7z"/>
<path d="M3833 13242 c-22 -3 -23 -7 -23 -108 0 -76 3 -104 13 -105 6 -1 86
-3 177 -4 91 -1 172 -3 180 -4 13 -1 15 -113 15 -946 l0 -945 -110 -1 c-60 0
-146 -1 -190 -2 l-80 -2 -3 -107 -2 -108 657 0 658 0 -2 97 c-1 54 -2 104 -2
111 -1 9 -50 12 -218 11 -120 0 -274 0 -343 0 l-125 1 1 433 c1 237 2 435 3
440 0 4 120 7 266 7 l265 0 0 -183 0 -182 120 0 120 -1 0 458 0 458 -120 0
-120 0 0 -165 0 -165 -52 0 c-285 -3 -472 0 -477 9 -3 5 -6 184 -6 398 l0 388
395 -1 c333 -1 404 -3 450 -17 104 -30 126 -80 129 -292 1 -77 4 -142 7 -144
3 -3 56 -6 119 -6 l115 -1 1 30 c0 17 1 169 2 339 2 267 0 307 -13 308 -48 3
-1789 3 -1807 1z"/>
<path d="M3808 8572 l-38 -3 0 -108 0 -107 130 1 c110 0 130 -2 130 -15 0 -8
2 -368 4 -800 2 -432 6 -803 11 -825 13 -71 54 -189 82 -236 92 -153 255 -251
463 -277 70 -9 312 -8 367 2 280 47 441 185 514 441 23 80 23 81 26 885 2 443
5 810 7 815 2 7 49 11 126 10 68 0 124 3 127 9 5 8 8 136 4 196 -1 13 -52 15
-396 15 l-395 0 0 -110 0 -111 146 1 145 1 -3 -786 c-4 -772 -4 -786 -26 -857
-64 -211 -181 -291 -437 -298 -269 -8 -411 68 -479 257 -14 40 -30 105 -34
143 -9 68 -14 1508 -6 1530 3 7 50 10 137 10 73 -1 137 2 142 6 10 7 12 195 2
205 -6 6 -686 11 -749 6z"/>
<path d="M3774 3899 c-7 -11 -3 -209 4 -210 4 -1 97 -3 207 -4 110 -1 202 -3
205 -4 6 -1 3 -1881 -3 -1887 -3 -3 -97 -5 -210 -5 l-204 0 -2 -109 -1 -110
965 0 c765 0 965 3 966 13 1 15 1 789 0 798 -1 4 -54 7 -119 8 l-118 0 -2
-162 c-3 -252 -13 -309 -66 -365 -33 -35 -94 -57 -184 -66 -41 -5 -544 -9
-744 -6 l-36 0 1 948 2 947 213 1 c116 1 215 2 220 3 7 1 4 202 -3 209 -7 7
-1087 8 -1091 1z"/>
<path d="M8718 3900 c-22 -6 -23 -10 -23 -108 -1 -63 3 -102 10 -103 5 -1 145
-2 310 -3 l300 -1 1 -947 1 -948 -86 -1 c-47 0 -186 0 -308 0 -123 1 -224 -2
-224 -6 -1 -5 -2 -54 -3 -110 l-2 -103 743 0 743 0 0 109 0 110 -307 0 c-169
1 -309 3 -311 6 -4 3 -6 1781 -3 1870 1 20 8 20 309 20 l307 0 3 108 c3 105 2
107 -20 108 -108 4 -1422 3 -1440 -1z"/>
<path d="M13164 3902 c-19 -3 -21 -10 -22 -107 -1 -58 2 -106 6 -106 4 -1 90
-2 192 -3 l185 -1 0 -944 c0 -622 -3 -945 -10 -947 -5 -2 -91 -5 -190 -6
l-180 -3 -2 -107 -2 -108 655 0 c574 0 654 2 655 15 0 8 1 47 1 85 0 39 -1 81
-1 95 l-1 25 -342 0 -343 0 0 437 1 438 267 3 267 2 2 -182 3 -183 118 0 117
0 0 457 0 458 -120 0 -120 0 0 -165 c0 -125 -3 -165 -12 -165 -136 -4 -511 0
-516 4 -6 7 -11 762 -5 781 4 11 765 12 812 1 125 -29 156 -77 161 -256 1 -47
3 -110 4 -140 l1 -55 118 0 c98 0 117 2 118 15 0 8 1 160 2 338 l2 322 -25 1
c-97 2 -1779 3 -1796 1z"/>
<path d="M17763 3894 c-2 -6 -2 -55 -1 -110 l3 -99 190 0 190 0 3 -948 2 -947
-62 0 c-35 -1 -123 -1 -195 -1 l-133 0 0 -110 0 -109 960 0 960 0 0 380 0 380
-120 0 -120 0 0 -67 c-2 -232 -15 -339 -48 -395 -19 -32 -78 -64 -134 -72 -33
-5 -389 -8 -760 -6 l-108 0 0 470 0 470 28 0 c208 3 494 1 499 -4 4 -3 6 -84
6 -180 -1 -154 1 -175 16 -178 9 -2 63 -4 120 -3 l104 0 1 449 c1 287 -3 451
-9 456 -5 4 -60 8 -121 8 l-111 0 0 -162 1 -161 -267 -3 -267 -2 0 364 c0 282
3 365 13 368 20 7 748 2 802 -6 131 -19 157 -73 159 -338 l1 -108 53 -1 c67
-1 136 -1 165 0 l22 1 0 335 c0 293 -1 335 -15 336 -8 0 -422 1 -919 2 -635 1
-905 -1 -908 -9z"/>
</g>
</svg>
