<?xml version="1.0" standalone="no"?>
<!DOCTYPE svg PUBLIC "-//W3C//DTD SVG 20010904//EN"
 "http://www.w3.org/TR/2001/REC-SVG-20010904/DTD/svg10.dtd">
<svg version="1.0" xmlns="http://www.w3.org/2000/svg"
 width="3000.000000pt" height="3000.000000pt" viewBox="0 0 3000.000000 3000.000000"
 preserveAspectRatio="xMidYMid meet">
<metadata>
Created by potrace 1.11, written by Peter Selinger 2001-2013
</metadata>
<g transform="translate(0.000000,3000.000000) scale(0.100000,-0.100000)"
fill="#000000" stroke="none">
<path d="M10147 24523 c-53 -140 -142 -377 -390 -1033 -141 -371 -272 -718
-292 -770 -20 -52 -41 -106 -45 -120 -5 -14 -45 -122 -90 -240 -45 -118 -113
-296 -150 -395 -37 -99 -128 -337 -200 -530 -222 -586 -463 -1223 -505 -1335
-9 -25 -21 -54 -25 -65 -8 -20 -99 -259 -210 -555 -34 -91 -73 -192 -86 -225
-12 -33 -75 -199 -139 -370 -64 -170 -127 -337 -140 -370 -13 -33 -76 -199
-140 -370 -65 -170 -145 -384 -180 -475 -34 -91 -90 -237 -123 -325 -110 -291
-519 -1373 -849 -2245 -73 -195 -140 -371 -148 -390 -8 -19 -46 -120 -86 -225
-95 -253 -168 -448 -409 -1085 -112 -294 -213 -562 -225 -595 -22 -59 -284
-752 -329 -870 -62 -163 -177 -467 -294 -775 -38 -102 -129 -342 -202 -535
-73 -192 -143 -377 -155 -410 -13 -33 -35 -93 -50 -132 l-27 -73 -609 0 -609
0 0 -680 0 -680 2430 0 c2307 0 2430 1 2431 18 0 9 1 315 2 679 l2 663 -1057
0 c-582 0 -1058 1 -1058 3 0 2 55 154 102 282 16 44 33 91 38 105 4 14 76 212
159 440 210 574 230 628 251 685 18 48 380 1042 406 1115 7 19 47 130 89 245
43 116 81 222 87 236 l9 27 2891 0 2890 0 15 -37 c9 -20 28 -70 43 -111 15
-41 92 -246 170 -455 78 -209 149 -402 160 -430 74 -203 293 -794 300 -810 5
-11 39 -101 75 -200 36 -99 70 -190 75 -203 6 -12 63 -167 129 -345 66 -177
135 -362 154 -412 19 -49 37 -102 41 -118 l6 -27 -972 0 c-535 1 -997 1 -1025
0 l-53 0 0 -680 0 -680 6040 0 6040 0 0 2550 c0 1403 -3 2550 -7 2551 -5 0
-343 1 -753 1 l-744 1 -2 -794 c-1 -723 -7 -1123 -19 -1284 -2 -33 -7 -98 -10
-145 -3 -47 -8 -96 -10 -110 -2 -14 -7 -52 -10 -85 -8 -87 -33 -228 -56 -320
-64 -253 -152 -421 -298 -565 -158 -156 -361 -257 -656 -324 -152 -34 -211
-44 -410 -66 -49 -6 -106 -12 -125 -15 -19 -2 -84 -7 -145 -10 -60 -4 -123 -9
-140 -12 -16 -3 -1153 -7 -2526 -9 -2046 -4 -2498 -2 -2507 9 -6 7 -72 170
-147 362 -74 193 -144 370 -154 395 -11 25 -56 137 -100 250 -43 113 -125 321
-180 463 -56 142 -101 260 -101 263 0 2 -9 23 -19 47 -11 23 -42 101 -69 172
-114 293 -204 522 -217 552 -8 17 -15 34 -15 37 0 4 -39 104 -86 224 -47 119
-96 244 -109 277 -29 79 -243 624 -254 650 -5 11 -32 79 -59 150 -28 72 -81
207 -118 300 -36 94 -76 197 -89 230 -37 98 -205 528 -215 550 -5 11 -40 101
-79 200 -38 99 -110 284 -160 410 -49 127 -120 307 -156 400 -37 94 -86 220
-110 280 -58 147 -145 368 -212 540 -30 77 -127 325 -215 550 -89 226 -190
484 -225 575 -232 594 -515 1318 -523 1335 -16 35 -340 866 -340 872 0 3 -7
19 -15 36 -12 27 -522 1327 -559 1427 -8 19 -67 172 -133 340 -158 401 -725
1850 -770 1965 -19 50 -39 99 -43 110 -8 18 -84 211 -200 508 -23 59 -43 107
-44 107 -2 0 -14 -30 -29 -67z m103 -3538 c19 -51 80 -216 390 -1060 95 -258
195 -531 222 -605 28 -74 65 -175 83 -225 18 -49 83 -227 144 -395 277 -752
431 -1169 449 -1220 21 -60 127 -349 172 -470 15 -41 71 -194 124 -340 53
-146 101 -274 106 -285 4 -11 27 -72 50 -135 23 -63 50 -137 60 -165 10 -27
34 -93 53 -145 50 -136 141 -383 199 -540 27 -74 68 -184 90 -245 22 -60 63
-171 90 -245 28 -74 58 -157 68 -185 10 -27 32 -87 48 -132 27 -72 28 -82 14
-85 -10 -2 -1097 -3 -2417 -3 -2090 1 -2400 3 -2397 16 2 7 95 271 207 584
298 834 411 1153 466 1310 27 77 56 156 63 175 8 19 47 127 86 240 40 113 87
246 105 295 38 105 47 130 285 800 99 281 190 532 200 559 11 27 20 52 20 57
0 4 5 20 11 36 6 15 33 89 59 163 27 74 69 194 95 265 26 72 74 207 107 300
162 454 156 440 363 1020 59 165 127 354 150 421 24 67 69 194 101 282 l59
162 28 -78 c16 -42 37 -99 47 -127z"/>
</g>
</svg>
